<svg width="288" height="289" viewBox="0 0 288 289" fill="none" xmlns="http://www.w3.org/2000/svg">
<rect width="288" height="289" fill="#FFFEFE"/>
<rect width="287.4" height="288.8" fill="#FFFEFE"/>
<path d="M97 80.7C89.8 87.7 82.8 94.9 76 102.4C98.1 126.5 120.9 149.8 144.2 172.7C167.5 149.8 190.4 126.5 212.4 102.4C205.6 95 198.6 87.9 191.4 80.9C175.5 95.9 159.8 111.1 144.1 126.6C128.8 111.2 113.1 95.8 97 80.7ZM118.9 61.3C127.6 68.5 136.1 75.9 144.4 83.4C152.7 75.8 161.2 68.4 169.8 61.3C161.6 54.4 153 47.8 144.3 41.5C135.6 47.8 127.1 54.4 118.9 61.3ZM57.2 124C51.7 130.8 46.5 137.7 41.6 144.8C69.9 184 104.9 218.8 144.4 246.7C183.7 218.8 218.8 184 246.8 144.7C242 137.7 236.9 130.8 231.6 124.1C205.5 156.7 176.1 186.5 144.7 214C112.9 186.3 83.5 156.5 57.2 124ZM17.3 144.4C17.2 75.9 74.9 17.3 143.5 17.1C212.3 17.1 270 75.8 269.8 144.4C269.8 212.9 212.1 271.4 143.5 271.4C75 271.4 17.5 212.9 17.3 144.4ZM0 144.4C0 64.6 64.3 0 143.7 0C223.1 0 287.4 64.6 287.4 144.4C287.4 224.1 223.1 288.8 143.7 288.8C64.4 288.7 0 224.1 0 144.4ZM9.79999 144.4C9.79999 218.8 69.7 278.9 143.7 278.9C217.7 278.9 277.6 218.6 277.6 144.4C277.6 70 217.7 9.89999 143.7 9.89999C69.7 9.69999 9.79999 70 9.79999 144.4Z" fill="black"/>
</svg>
